# xmcd
#
# Track frame offsets:
#	150
#	20305
#	35042
#	52772
#	65202
#	86875
#	102950
#	113420
#	134575
#	146745
#	163122
#
# Disc length: 2472 seconds
#
# Revision: 1
# Processed by: cddbd v1.5.2PL0 Copyright (c) Steve Scherf et al.
# Submitted via: audiograbber 1.83.01
#
DISCID=9a09a60b
DTITLE=Lou Ann Bardash - At The Vortex
DYEAR=1997
DGENRE=Blues
TTITLE0=Contemplation
TTITLE1=People Come
TTITLE2=Gone To Mexico
TTITLE3=Oklahome 1912
TTITLE4=Tower Of Song
TTITLE5=Sorrowful Blues
TTITLE6=Sophie Frankenstein
TTITLE7=Loneliness
TTITLE8=Never Say It Again
TTITLE9=Blues´n´Booze
TTITLE10=My Time
EXTD=
EXTT0=
EXTT1=
EXTT2=
EXTT3=
EXTT4=
EXTT5=
EXTT6=
EXTT7=
EXTT8=
EXTT9=
EXTT10=
PLAYORDER=
